<svg xmlns="http://www.w3.org/2000/svg" version="1.1" xmlns:xlink="http://www.w3.org/1999/xlink" xmlns:svgjs="http://svgjs.dev/svgjs" width="128" height="128" viewBox="0 0 128 128"><g transform="matrix(0.8046875,0,0,0.8046875,12.41184074821259,12.814873242367177)"><svg viewBox="0 0 98 98" data-background-color="#ffffff" preserveAspectRatio="xMidYMid meet" height="127" width="128" xmlns="http://www.w3.org/2000/svg" xmlns:xlink="http://www.w3.org/1999/xlink"><g id="tight-bounds" transform="matrix(1,0,0,1,0.08387967645792571,0.08387967645792571)"><svg viewBox="0 0 97.83224064708415 97.83224064708415" height="97.83224064708415" width="97.83224064708415"><g><svg></svg></g><g><svg viewBox="0 0 97.83224064708415 97.83224064708415" height="97.83224064708415" width="97.83224064708415"><g><path d="M0 48.916c0-27.016 21.9-48.916 48.916-48.916 27.016 0 48.916 21.9 48.916 48.916 0 27.016-21.9 48.916-48.916 48.916-27.016 0-48.916-21.9-48.916-48.916zM48.916 95.556c25.758 0 46.64-20.881 46.64-46.64 0-25.758-20.881-46.64-46.64-46.64-25.758 0-46.64 20.881-46.64 46.64 0 25.758 20.881 46.64 46.64 46.64z" data-fill-palette-color="tertiary" fill="#000000" stroke="transparent"></path><ellipse rx="46.95947551060039" ry="46.95947551060039" cx="48.916120323542074" cy="48.916120323542074" fill="#000000" stroke="transparent" stroke-width="0" fill-opacity="1" data-fill-palette-color="tertiary"></ellipse></g><g transform="matrix(1,0,0,1,23.47539391502934,36.295592216081324)"><svg viewBox="0 0 50.88145281702547 25.241056214921496" height="25.241056214921496" width="50.88145281702547"><g><svg viewBox="0 0 50.88145281702547 25.241056214921496" height="25.241056214921496" width="50.88145281702547"><g><svg viewBox="0 0 50.88145281702547 25.241056214921496" height="25.241056214921496" width="50.88145281702547"><g id="textblocktransform"><svg viewBox="0 0 50.88145281702547 25.241056214921496" height="25.241056214921496" width="50.88145281702547" id="textblock"><g><svg viewBox="0 0 50.88145281702547 25.241056214921496" height="25.241056214921496" width="50.88145281702547"><g><svg viewBox="0 0 50.88145281702547 25.241056214921496" height="25.241056214921496" width="50.88145281702547"><g><svg xmlns="http://www.w3.org/2000/svg" xmlns:xlink="http://www.w3.org/1999/xlink" version="1.1" x="0" y="0" viewBox="183 -40.29999941143039 369.5 183.2999994114304" enable-background="new 159 -158 417 417" xml:space="preserve" height="25.241056214921496" width="50.88145281702547" class="icon-icon-0" data-fill-palette-color="quaternary" id="icon-0"><circle cx="367.5" cy="-25.1" r="15" fill="#ffffff" data-fill-palette-color="quaternary"></circle><path d="M381.8 14.1l19.1 47.3 14.2-5.7L392.2-1.1c-1.2-2.9-4-4.8-7.1-4.8h-8.5-6.7-0.1-4.5-0.1-6.7-8.5c-3.1 0-5.9 1.9-7.1 4.8l-22.9 56.8 14.2 5.7 19.1-47.3 2.4 1L329.8 84h20.6l11.1 59h3.6 4.5 3.6l11.1-59h20.6l-25.7-68.9L381.8 14.1z" fill="#ffffff" data-fill-palette-color="quaternary"></path><polygon points="552.5,37.1 446.5,-10.1 446.5,16.7 522,50 446.5,83.8 446.5,110.6 552.5,63.9 " fill="#ffffff" data-fill-palette-color="quaternary"></polygon><polygon points="183,63.9 289,110.6 289,83.8 213.5,50 289,16.7 289,-10.1 183,37.1 " fill="#ffffff" data-fill-palette-color="quaternary"></polygon></svg></g></svg></g></svg></g></svg></g></svg></g><g></g></svg></g></svg></g></svg></g><defs></defs></svg><rect width="97.83224064708415" height="97.83224064708415" fill="none" stroke="none" visibility="hidden"></rect></g></svg></g></svg>